<?xml version="1.0" encoding="utf-8"?>
<!-- Generator: Adobe Illustrator 15.1.0, SVG Export Plug-In . SVG Version: 6.00 Build 0)  -->
<!DOCTYPE svg PUBLIC "-//W3C//DTD SVG 1.1//EN" "http://www.w3.org/Graphics/SVG/1.1/DTD/svg11.dtd">
<svg version="1.1" id="Warstwa_1" xmlns="http://www.w3.org/2000/svg" xmlns:xlink="http://www.w3.org/1999/xlink" x="0px" y="0px"
	 width="192.123px" height="73.69px" viewBox="0 0 192.123 73.69" enable-background="new 0 0 192.123 73.69" xml:space="preserve">
<g>
	<path fill="#FFFFFF" d="M20.083,73.69c-5.551-0.348-10.441-2.635-14.672-6.866C2.498,63.146,0.693,58.846,0,53.92V41.744
		c0.484-1.458,1.491-2.635,3.018-3.538l2.706-0.625c1.457,0.208,2.74,0.972,3.85,2.289l1.145,1.874v10.511
		c0.346,3.12,1.629,5.861,3.85,8.219c1.665,1.319,3.502,2.048,5.515,2.187h53.904c2.427-0.139,4.543-1.25,6.348-3.33
		c1.457-1.804,2.358-3.884,2.706-6.244V4.907c0.762-2.082,1.595-3.382,2.497-3.903c0.9-0.52,2.115-0.78,3.642-0.78
		c2.914,0.416,4.543,2.151,4.891,5.203v46.829c-0.348,6.382-2.914,11.86-7.701,16.439c-3.678,2.985-7.909,4.647-12.696,4.995H20.083
		z"/>
	<path fill="#FFFFFF" d="M185.957,74.211c-0.695-0.141-1.406-0.348-2.135-0.625c-0.728-0.276-1.368-0.692-1.925-1.249
		l-12.695-19.563h-49.844l-13.008,19.979c-3.331,1.941-5.968,1.7-7.909-0.729c-0.556-0.692-0.902-1.421-1.04-2.184
		c-0.141-0.764-0.141-1.597,0-2.499l14.152-22.477c0.833-2.219,2.498-3.121,4.994-2.705l45.474-0.104L139.649,8.653
		c-1.249-3.19-0.763-5.653,1.456-7.388c2.219-1.874,4.614-1.665,7.181,0.624l42.354,63.374c1.108,1.942,1.179,3.954,0.209,6.035
		c-1.249,1.388-2.187,2.186-2.811,2.393C187.413,73.899,186.718,74.071,185.957,74.211z"/>
</g>
</svg>
