<?xml version="1.0" encoding="utf-8"?>
<!-- Generator: Adobe Illustrator 15.1.0, SVG Export Plug-In . SVG Version: 6.00 Build 0)  -->
<!DOCTYPE svg PUBLIC "-//W3C//DTD SVG 1.1//EN" "http://www.w3.org/Graphics/SVG/1.1/DTD/svg11.dtd">
<svg version="1.1"
	 id="Warstwa_1" xmlns:dc="http://purl.org/dc/elements/1.1/" xmlns:rdf="http://www.w3.org/1999/02/22-rdf-syntax-ns#" xmlns:cc="http://creativecommons.org/ns#"
	 xmlns="http://www.w3.org/2000/svg" xmlns:xlink="http://www.w3.org/1999/xlink" x="0px" y="0px" width="1601.2px" height="586px"
	 viewBox="0 -130.985 1601.2 586" enable-background="new 0 -130.985 1601.2 586" xml:space="preserve">
<g>
	<path fill="#82B541" d="M206.073,41.031c-8.048-4.468-31.118-1.705-58.826,6.872c-48.493,33.146-89.42,81.98-92.276,160.399
		c-0.52,1.875-5.303-0.255-6.249-0.835c-13.095-25.099-18.283-51.528-7.349-89.654c2.038-3.393-4.625-7.569-5.823-6.377
		c-2.4,2.404-12.405,13.062-19.05,24.588c-32.938,57.139-11.398,130.351,46.229,162.391c57.615,32.09,130.37,11.39,162.45-46.242
		c37.113-66.518,2.652-198.99-19.105-211.14L206.073,41.031z"/>
	<path d="M412.303,72.954c-68.313,0-117.9,50.786-117.9,120.76c0,70.548,49.457,119.82,120.28,119.82
		c35.773,0,64.095-11.187,86.619-34.213c6.728-7.265,7.451-14.265,7.451-16.94c0-11.407-8.483-19.693-20.171-19.693
		c-5.892,0-10.819,2.226-16.472,7.451c-12.754,11.884-29.55,24.024-57.428,24.024c-38.766,0-70.293-29.105-72.278-66.481h154.289
		c16.778,0,24.929-7.844,24.929-23.974c0-4.749,0-8.176-0.955-14.938c-8.312-59.993-48.817-95.809-108.36-95.809L412.303,72.954z
		 M412.303,110.415c37.043,0,60.813,23.606,62.279,61.708h-132.13c3.469-35.262,33.282-61.708,69.849-61.708H412.303z"/>
	<path d="M668.953,72.954c-31.033,0-61.76,17.844-73.764,42.627v-15.316c0-23.727-18.389-24.929-22.071-24.929
		c-10.896,0-22.541,6.548-22.541,24.929v184.99c0,24.639,19.573,25.884,23.495,25.884c3.923,0,23.506-1.245,23.506-25.884v-99.168
		c0-43.148,24.45-73.285,59.457-73.285c33.905,0,50.394,22.251,50.394,68.033v104.42c0,24.639,19.583,25.884,23.505,25.884
		s23.496-1.245,23.496-25.884v-119.18c0-45.016-22.456-93.107-85.477-93.107V72.954z"/>
	<path d="M967.092,75.34c-10.861,0-18.738,6.335-23.428,18.799l-64.303,161.7l-63.814-161.7
		c-4.996-12.65-12.814-18.799-23.906-18.799c-12.958,0-23.504,10.111-23.504,22.542c0,3.077,0.349,7.067,2.95,13.299l73.899,174.49
		c8.807,21.05,23.291,25.467,33.896,25.467c10.598,0,25.09-4.417,33.914-25.457l74.381-175.46
		c2.541-6.154,2.934-10.674,2.934-12.812c0-12.575-9.906-22.065-23.02-22.065V75.34z"/>
	<path d="M1103.713,72.954c-30.062,0-58.059,8.372-78.826,23.556c-7.043,4.859-10.471,10.921-10.471,18.543
		c0,10.495,8.014,18.723,18.262,18.723c4.434,0,9.396-1.766,13.947-4.954c17.854-11.901,34.631-17.451,52.791-17.451
		c34.75,0,54.699,17.673,54.699,48.493v5.106c-78.01,0.085-157.352,9.506-157.352,77.369c0,48.842,41.74,70.71,83.105,70.71
		c32.943,0,59.254-13.053,76.133-37.769v11.885c0,17.699,11.885,23.975,22.082,23.975c2.146,0,21.109-0.674,21.109-23.975v-124.45
		c0-56.217-35.703-89.773-95.484-89.773L1103.713,72.954z M1144.227,199.574h9.889v10.827c0,39.601-25.219,65.186-64.23,65.186
		c-10.588,0-45.15-2.464-45.15-34.204C1044.735,203.906,1101.514,199.574,1144.227,199.574z"/>
	<path d="M1321.614,118.045c20.562,0,21.604-16.002,21.604-19.208c0-9.515-5.678-19.686-21.604-19.686h-42.287V36.379
		c0-19.106-12.396-25.884-23.02-25.884c-3.922,0-23.496,1.245-23.496,25.884v203.11c0,46.873,23.121,71.647,66.875,71.647
		c11.32,0,22.354-2.004,29.564-5.363c8.271-4.126,13.012-10.911,13.012-18.61c0-10.861-7.879-18.738-18.74-18.738
		c-2.098,0-5.08,0.521-8.371,1.466c-4.023,1.007-6.752,1.398-9.736,1.398c-17.801,0-26.088-11.62-26.088-36.574V118.026h42.287
		V118.045z"/>
	<path d="M1477.012,72.954c-71.086,0-122.66,50.386-122.66,119.8c0,33.796,12.498,64.598,35.178,86.729
		c22.506,21.952,53.572,34.043,87.486,34.043c70.199,0,123.141-51.921,123.141-120.771c0-69.415-51.801-119.8-123.141-119.8
		L1477.012,72.954z M1477.012,273.674c-48.748,0-74.24-40.71-74.24-80.925c0-55.262,38.484-80.429,74.24-80.429
		s74.24,25.167,74.24,80.429C1551.252,248.353,1512.768,273.674,1477.012,273.674z"/>
</g>
</svg>
