<?xml version="1.0" encoding="utf-8"?>
<!-- Generator: Adobe Illustrator 15.1.0, SVG Export Plug-In . SVG Version: 6.00 Build 0)  -->
<!DOCTYPE svg PUBLIC "-//W3C//DTD SVG 1.1//EN" "http://www.w3.org/Graphics/SVG/1.1/DTD/svg11.dtd">
<svg version="1.1" id="Warstwa_1" xmlns="http://www.w3.org/2000/svg" xmlns:xlink="http://www.w3.org/1999/xlink" x="0px" y="0px"
	 width="550px" height="612px" viewBox="31.5 90 550 612" enable-background="new 31.5 90 550 612" xml:space="preserve">
<title>HTML5 Logo</title>
<polygon fill="#E44D26" points="128.668,652.845 89.21,210.272 522.79,210.272 483.29,652.775 305.734,702 "/>
<polygon fill="#F16529" points="306,664.375 449.474,624.599 483.229,246.459 306,246.459 "/>
<polygon fill="#EBEBEB" points="306,410.604 234.174,410.604 229.213,355.02 306,355.02 306,300.74 305.812,300.74 169.892,300.74 
	171.191,315.302 184.532,464.882 306,464.882 "/>
<polygon fill="#EBEBEB" points="306,551.573 305.762,551.637 245.311,535.313 241.446,492.023 212.071,492.023 186.958,492.023 
	194.562,577.25 305.75,608.116 306,608.047 "/>
<path d="M129.55,90h27.584v27.253h25.233V90h27.585v82.529h-27.584v-27.636h-25.233v27.636h-27.584V90H129.55z"/>
<path d="M246.227,117.368h-24.284V90h76.165v27.368h-24.294v55.162h-27.585v-55.162H246.227z"/>
<path d="M310.196,90h28.764l17.692,28.998L374.328,90h28.773v82.529h-27.471v-40.906l-18.979,29.344h-0.475l-18.991-29.344v40.906
	h-26.99V90z"/>
<path d="M416.829,90h27.593v55.25h38.792v27.279h-66.385V90z"/>
<polygon fill="#FFFFFF" points="305.812,410.604 305.812,464.882 372.651,464.882 366.352,535.279 305.812,551.619 305.812,608.09 
	417.089,577.25 417.905,568.08 430.66,425.179 431.984,410.604 417.357,410.604 "/>
<polygon fill="#FFFFFF" points="305.812,300.74 305.812,334.452 305.812,354.887 305.812,355.02 436.749,355.02 436.749,355.02 
	436.924,355.02 438.013,342.819 440.485,315.302 441.784,300.74 "/>
</svg>
