<?xml version="1.0" encoding="utf-8"?>
<!-- Generator: Adobe Illustrator 15.1.0, SVG Export Plug-In . SVG Version: 6.00 Build 0)  -->
<!DOCTYPE svg PUBLIC "-//W3C//DTD SVG 1.1//EN" "http://www.w3.org/Graphics/SVG/1.1/DTD/svg11.dtd">
<svg version="1.1" id="Warstwa_1" xmlns="http://www.w3.org/2000/svg" xmlns:xlink="http://www.w3.org/1999/xlink" x="0px" y="0px"
	 width="612px" height="564.922px" viewBox="0 0 612 564.922" enable-background="new 0 0 612 564.922" xml:space="preserve">
<path fill="#FAA83D" d="M525.308,46.641v0.005L415.643,0H196.351L86.699,46.645L0,147.703l306,417.219l306-417.219L525.308,46.641z
	 M585.458,148.733l-111.69,84.998L421.254,116.6l96.39-47.162L585.458,148.733z M453.391,238.386H157.583l51-114.012h193.799
	L453.391,238.386z M199.905,20.718l211.133,0.001l85.186,36.279l-93.848,46.646v-0.001H208.577l-93.841-46.646L199.905,20.718z
	 M93.323,69.437l96.39,47.162l-52.531,117.132l-111.69-84.998L93.323,69.437z M68.339,207.298l64.26,48.717L214.2,405.79
	L68.339,207.298z M305.482,530.191L157.59,259.122h295.81L305.482,530.191z M396.788,405.79l81.584-149.775l64.26-48.717
	L396.788,405.79z"/>
</svg>
